<svg xmlns="http://www.w3.org/2000/svg" version="1.1" xmlns:xlink="http://www.w3.org/1999/xlink" xmlns:svgjs="http://svgjs.dev/svgjs" width="1440" height="560" preserveAspectRatio="none" viewBox="0 0 1440 560"><g mask="url(&quot;#SvgjsMask1011&quot;)" fill="none"><path d="M1464 560L0 560 L0 282.53Q75.1 237.63, 120 312.72Q167.17 287.89, 192 335.06Q220.94 244, 312 272.93Q360.69 249.63, 384 298.32Q422.84 217.16, 504 256Q572.24 204.24, 624 272.48Q699.66 228.14, 744 303.8Q799.27 287.07, 816 342.34Q857.44 311.78, 888 353.22Q929.4 274.63, 1008 316.03Q1023.07 259.1, 1080 274.17Q1133.92 208.1, 1200 262.02Q1248.26 238.28, 1272 286.55Q1332.71 275.26, 1344 335.98Q1393.65 265.63, 1464 315.29z" fill="#182f5d"></path><path d="M1464 560L0 560 L0 424.52Q-0.44 352.08, 72 351.64Q121.04 280.68, 192 329.72Q300.21 317.94, 312 426.15Q355.43 349.58, 432 393.01Q447.43 336.44, 504 351.87Q551.81 279.68, 624 327.49Q707.5 291, 744 374.5Q817.06 327.56, 864 400.62Q893.66 310.28, 984 339.95Q1028.79 312.74, 1056 357.53Q1101.45 330.98, 1128 376.42Q1192.46 368.88, 1200 433.34Q1223.19 384.53, 1272 407.72Q1323.98 339.7, 1392 391.68Q1413.55 341.23, 1464 362.77z" fill="#25467d"></path><path d="M1464 560L0 560 L0 444.96Q51.96 376.92, 120 428.89Q172.43 409.32, 192 461.75Q246.72 444.47, 264 499.19Q269.9 433.09, 336 438.99Q362.17 393.16, 408 419.34Q490.95 382.29, 528 465.24Q602.88 420.13, 648 495.01Q677.36 404.37, 768 433.73Q819.07 412.8, 840 463.87Q924.05 427.92, 960 511.97Q969.94 401.91, 1080 411.85Q1150.04 361.89, 1200 431.93Q1261.43 421.36, 1272 482.79Q1325.09 415.88, 1392 468.97Q1398.74 403.72, 1464 410.46z" fill="#356cb1"></path><path d="M1512 560L0 560 L0 499.85Q73.12 452.98, 120 526.1Q163.69 497.79, 192 541.47Q251.18 528.65, 264 587.84Q267.39 519.23, 336 522.62Q358.13 472.75, 408 494.87Q450.37 465.24, 480 507.61Q567.57 475.18, 600 562.76Q623.98 514.74, 672 538.71Q688.11 482.82, 744 498.92Q792.39 475.32, 816 523.71Q832.36 468.07, 888 484.43Q955.42 431.86, 1008 499.28Q1084.71 455.99, 1128 532.7Q1138.63 471.33, 1200 481.96Q1273.97 435.94, 1320 509.91Q1364.88 482.79, 1392 527.67Q1459.13 474.79, 1512 541.92z" fill="white"></path></g><defs><mask id="SvgjsMask1011"><rect width="1440" height="560" fill="#ffffff"></rect></mask></defs></svg>